<svg xmlns="http://www.w3.org/2000/svg" width="32" height="28" viewBox="0 0 32 28">
  <path fill="#FDAF07" fill-rule="evenodd" d="M68.0004311,58 L40.0000616,58 C38.8003695,58 38,57.3003849 38,56.2504696 L38,40.5066667 C38,39.4569977 38.8001232,38.7573826 40.0000616,38.7573826 L47.2001848,38.7573826 L51.6001232,34.2088992 C51.2003079,33.6846805 51.0002771,33.1594765 51.0002771,32.6340262 C51.0002771,31.9344111 51.3152425,30.0109623 54.0002463,30.0109623 C56.6852502,30.0109623 56.9997229,31.9344111 56.9997229,32.6340262 C56.9997229,33.1594765 56.8004311,33.6846805 56.4001232,34.0335027 L61.0003387,38.7573826 L68.0004311,38.7573826 C69.2003695,38.7573826 70,39.4569977 70,40.5066667 L70,56.2504696 C70,57.3003849 69.2003695,58 68.0004311,58 Z M42.955689,51.9054657 L42.955689,53.7212625 L58.4753195,53.7212625 L58.4753195,51.9054657 L42.955689,51.9054657 Z M54,35.1632333 L50.4010778,38.776351 L57.6662818,38.776351 L54,35.1632333 Z M42.955689,47.5171055 L42.955689,49.3329022 L64.3055273,49.3329022 L64.3055273,47.5171055 L42.955689,47.5171055 Z M42.955689,43.1284988 L42.955689,44.9442956 L64.3055273,44.9442956 L64.3055273,43.1284988 L42.955689,43.1284988 Z" transform="translate(-38 -30)"/>
</svg>
