<svg xmlns="http://www.w3.org/2000/svg" width="28" height="25" viewBox="0 0 28 25">
  <g fill="#00C9FC" transform="translate(.786 -.384)">
    <path d="M24.8048044,24.7212718 L2.2194589,24.7212718 C0.995703357,24.7006757 0.0191731252,23.6940711 0.0356945555,22.4702538 L0.00404579692,2.72538442 C-0.00183095213,2.14443245 0.226355938,1.5855624 0.637172029,1.1747463 C1.04798812,0.763930206 1.60685817,0.535743309 2.18781014,0.541620051 L17.7075702,0.541620051 C18.2321182,0.542256608 18.7394868,0.728665514 19.1396766,1.06778068 L26.2507571,8.31930253 C26.7141876,8.75360258 26.9691402,9.36577685 26.9509858,10.0006428 L26.9846126,22.5355294 C26.9915517,23.1162924 26.7643163,23.67538 26.3541841,24.0866287 C25.9440519,24.4978774 25.3855842,24.7266319 24.8048044,24.7212718 Z M2.18781014,1.99944103 C1.76689748,1.99943962 1.4253743,2.34007802 1.42428384,2.76098926 L1.45988869,22.5019026 C1.45988726,22.9228152 1.80052569,23.2643384 2.22143695,23.2654289 L24.8048044,23.2654289 C25.2249448,23.2643418 25.5652656,22.924021 25.5663527,22.5038806 L25.5327258,9.96701603 C25.5324435,9.74271878 25.4332973,9.52995241 25.2617333,9.38547009 L18.1526309,2.13197018 C18.0223071,2.04258661 17.8675682,1.9956123 17.7095483,1.99746297 L2.18781014,1.99944103 Z"/>
    <polygon points="5.996 15.45 21.165 15.45 21.165 17.078 5.996 17.078"/>
    <polygon points="5.996 11.45 21.165 11.45 21.165 13.078 5.996 13.078"/>
    <polygon points="5.996 7.45 16.165 7.45 16.165 9.078 5.996 9.078"/>
    <polygon points="5.996 18.706 16.283 18.706 16.283 20.334 5.996 20.334"/>
  </g>
</svg>
