<svg xmlns="http://www.w3.org/2000/svg" width="28" height="32" viewBox="0 0 28 32">
  <g fill="#FDAF07">
    <path d="M11.0819747,20.3268263 L5.6695565,17.3612034 C5.14845338,17.0756207 4.48512778,17.2508387 4.18816726,17.7525996 C3.89120675,18.2543605 4.07268262,18.8926549 4.59435463,19.1788065 L10.0067729,22.1438605 C10.527876,22.4294433 11.1912016,22.2547941 11.4881621,21.7530332 C11.7851226,21.2507035 11.6030778,20.612409 11.0819747,20.3268263 Z"/>
    <path d="M23.2300491,11.6410157 C23.7401213,11.3455617 23.9176514,10.6947872 23.628272,10.1812443 C23.4911268,9.93494584 23.26109,9.75380007 22.9894994,9.67823354 C22.7179088,9.60266702 22.42737,9.63896944 22.1827228,9.77903914 L13.9059441,14.5366652 L5.63087197,9.78017694 C5.38638178,9.63978803 5.09586278,9.60312562 4.82416011,9.67837294 C4.55245744,9.75362025 4.32218978,9.93451312 4.1847539,10.1806754 C3.8950343,10.6939447 4.07174565,11.3447597 4.58127015,11.6410157 L12.9752402,16.4652018 L12.9752402,26.7729174 C12.9752402,27.1552114 13.1771961,27.5084921 13.5054456,27.700208 C13.8330268,27.8915299 14.2382752,27.8915299 14.5658563,27.700208 C14.8935369,27.5084921 15.0960617,27.1552115 15.0960617,26.7729174 L15.0960617,16.4225351 C15.0960617,16.3889706 15.0801328,16.3599572 15.0767194,16.3269616 L23.2300491,11.6410157 Z"/>
    <path d="M26.2172898,6.68370935 L15.5170402,0.465743037 C14.5183229,-0.113862949 13.2856008,-0.113862949 12.2868835,0.465743037 L1.59402941,6.68370935 C0.60744381,7.25683026 0.000242055714,8.31152367 0,9.45249636 L0,22.6490348 C0.000516956423,23.8040918 0.62313688,24.8693284 1.62930061,25.4365952 L12.3261369,31.4742234 C13.3064455,32.0276168 14.5048737,32.0276168 15.4851824,31.4742234 L26.1820187,25.4365952 C27.1887082,24.8697108 27.8118285,23.8043621 27.812457,22.6490348 L27.812457,9.45249636 C27.8119795,8.31128977 27.2043132,7.2565423 26.2172898,6.68370935 Z M25.6728622,22.6490348 C25.6728622,23.0336043 25.4652174,23.3891605 25.1295724,23.5786008 L14.4327361,29.6156602 C14.1062216,29.8003236 13.7068043,29.8003236 13.3802898,29.6156602 L2.68231576,23.5786008 C2.34673659,23.3894942 2.13910001,23.0342291 2.13902593,22.6490348 L2.13902593,9.45249636 C2.13902593,9.07190903 2.34098185,8.7203351 2.67036907,8.5291881 L13.3632231,2.31122178 C13.6959583,2.11788985 14.1068276,2.11788985 14.4395628,2.31122178 L25.1403813,8.53032587 C25.4703374,8.7203351 25.6722933,9.07190903 25.6722933,9.45192749 L25.6722933,22.6490348 L25.6728622,22.6490348 Z"/>
    <path d="M23.0081821,13.881304 L17.9518889,16.7928824 C17.253861,17.1950876 16.6872467,18.0797113 16.6872467,18.7692058 L16.6872467,24.5980515 C16.6872467,25.287546 17.2527232,25.5196531 17.9518889,25.1180168 L23.0081821,22.2064384 C23.7062099,21.8048022 24.2728243,20.9196095 24.2728242,20.230115 L24.2728242,14.4012694 C24.2728242,13.7123437 23.7073477,13.4796678 23.0081821,13.881304 Z"/>
  </g>
</svg>
