<svg xmlns="http://www.w3.org/2000/svg" width="32" height="32" viewBox="0 0 32 32">
  <path fill="#FDAF07" fill-rule="evenodd" d="M62.6728963,30.001273 C65.1031242,30.001273 67.1312281,32.1076176 67.1312282,34.6334831 C67.1312282,37.1768287 65.1118661,39.2394732 62.6204453,39.2394732 C60.1290245,39.2394732 58.1271461,37.1855687 58.1271461,34.6247431 C58.1271461,32.0639175 60.1552501,30.001273 62.6728963,30.001273 Z M61.3772976,49.4614168 C61.6037276,49.6198851 61.6037276,49.8689066 61.4150359,50.0651054 C61.0452001,50.449957 60.6602689,50.8197163 60.2753378,51.1894756 C60.1017414,51.35549 59.9205973,51.3253056 59.7545486,51.1668373 C59.6035952,51.0234612 59.4526418,50.8800852 59.3092361,50.729163 C59.1582827,50.5556025 58.992234,50.5329642 58.7808992,50.6235175 C58.4412541,50.7744397 58.0865136,50.8876313 57.7619638,51.0611918 C57.6336534,51.1291068 57.5128907,51.2951211 57.4827,51.4384972 C57.437414,51.6422421 57.4676047,51.8761715 57.4676047,52.0874625 C57.4676047,52.3364841 57.3543896,52.4723141 57.0977689,52.4949524 C56.8260528,52.5175907 56.5543367,52.540229 56.2750729,52.5628674 C56.0109045,52.540229 55.7391884,52.5175907 55.4674723,52.4874063 C55.2410422,52.4647679 55.0825411,52.328938 55.1202794,52.0950086 C55.2485898,51.35549 54.92404,51.0234612 54.2296545,50.797078 C53.3994108,50.5254181 53.6107456,50.3895881 52.939003,51.0536457 C52.6370962,51.35549 52.5012381,51.3705822 52.1917837,51.0838301 C51.8294955,50.7518014 51.5049457,50.3895882 51.1653006,50.034921 C50.9841565,49.8387222 50.9917042,49.6047928 51.1954913,49.4614168 C51.8144002,49.0388347 51.8521385,48.5332455 51.4445644,47.9521951 C51.429469,47.9371029 51.429469,47.9144645 51.4219214,47.8918262 C51.1577529,47.2126765 51.1577529,47.2126765 50.402986,47.2126765 C49.9123874,47.2126765 49.7991724,47.1145771 49.7916247,46.6316261 C49.784077,46.2090441 49.7916247,45.7789159 49.8142678,45.3563338 C49.8293631,44.9790284 49.9727688,44.8054679 50.3426046,44.8507445 C50.9766088,44.9337518 51.248325,44.6847302 51.4973981,44.0885876 C51.7615665,43.4622606 51.7993048,43.0321324 51.2181343,42.6246426 C50.9841565,42.4586282 50.9917042,42.2096066 51.1954913,41.9983156 C51.5426841,41.6361024 51.8974246,41.2814352 52.252165,40.9267681 C52.4710475,40.707931 52.7276682,40.7230232 52.9012646,40.9720448 C53.2937434,41.5304568 53.7013176,41.5002724 54.3126788,41.2512508 C54.9315877,40.9946831 55.2485898,40.7154771 55.1278271,40.0287812 C55.0825411,39.7571213 55.2334945,39.5760147 55.5127583,39.5760147 C56.0561905,39.5684686 56.5996227,39.5684686 57.1430549,39.591107 C57.3619374,39.5986531 57.5053431,39.7571213 57.4676047,39.9684124 C57.3166513,40.7305693 57.6789394,41.0701442 58.3808727,41.2814352 C59.105449,41.5078185 59.0903537,41.5681874 59.6413336,41.0248676 C59.950788,40.7230232 60.0715507,40.6928388 60.3885529,40.9795909 C60.7432933,41.2965275 61.0753908,41.6511946 61.4074882,41.9983156 C61.6037276,42.2096066 61.6112753,42.4586282 61.3772976,42.6246426 C60.796127,43.0396785 60.8263177,43.4622606 61.0980338,44.0885876 C61.3471069,44.6469996 61.5810846,44.9337518 62.2150889,44.8658368 C62.6528537,44.8205601 62.7660688,44.9714823 62.7736164,45.4317949 C62.7811641,45.8996536 62.7736164,46.3675124 62.7509734,46.8278249 C62.7358781,47.1221232 62.5245434,47.2277687 62.2528272,47.2277687 C61.4225835,47.2353148 61.4905126,47.2730454 61.0980338,47.9899257 C60.773484,48.6237988 60.8112223,49.0539269 61.3772976,49.4614168 Z M47.9254338,33.654601 C51.0637497,31.4171561 54.5604806,30.6043343 58.3631754,31.0937754 C58.0484697,31.7055767 57.6900547,32.273678 57.4715091,32.8942193 C57.2617052,33.5147607 57.2005124,34.1964822 57.0693851,34.8694636 C52.16522,34.7383633 48.6160381,36.9583282 46.3519049,41.3895179 C45.2154673,40.7165364 43.9741279,40.4892959 42.5754355,40.6553563 C43.6856476,37.7449299 45.4514967,35.4200849 47.9254338,33.654601 Z M39.0000282,46.0916481 C38.9912863,43.5832627 41.0193903,41.5293582 43.4933274,41.5206182 C46.0721664,41.5118781 47.9079501,43.5832627 47.9953684,45.8032275 C48.1264958,49.0807346 45.6700424,50.7500783 43.5020692,50.7500783 C41.0106484,50.7500783 39.00877,48.6699537 39.0000282,46.0916481 Z M42.6715956,51.6328202 C44.017837,51.7726605 45.2679183,51.5366799 46.395614,50.8025184 C48.6947146,55.207488 52.2788637,57.4012328 57.322898,57.2089523 C57.2966725,58.5723953 57.7250221,59.813478 58.6166885,60.9234605 C52.0952853,62.103363 45.1717582,58.2664947 42.6715956,51.6328202 Z M62.7603145,61.9984828 C60.2776356,62.0247029 58.2757572,59.9358383 58.2757572,57.3837528 C58.2757572,54.8141872 60.260152,52.7690227 62.7603145,52.7690227 C65.269219,52.7690227 67.2623556,54.7967071 67.2623556,57.3662727 C67.2448719,60.0057585 65.2867026,61.9722628 62.7603145,61.9984828 Z M67.8655417,55.3123682 C67.5071267,54.7704871 67.2011628,54.1761657 66.7728133,53.6779847 C66.3532056,53.1885436 65.8112122,52.8039828 65.3216699,52.3844618 C67.8655417,48.1105925 67.8305743,43.8192432 65.1992843,39.5191538 C66.3444637,38.8374323 67.1924209,37.8760302 67.7081888,36.6174674 C71.7381711,41.3283377 72.3850663,49.6051358 67.8655417,55.3123682 Z" transform="translate(-39 -30)"/>
</svg>
