<svg xmlns="http://www.w3.org/2000/svg" width="33" height="28" viewBox="0 0 33 28">
  <g fill="none">
    <polygon fill="#00C9FC" points=".014 25.967 32.451 25.967 32.451 27.777 .014 27.777"/>
    <path fill="#00C9FC" d="M16.6922647,0.0181004822 L6.62839658,0.0181004822 C4.23913293,0.0181004822 2.28428085,1.97295256 2.28428085,4.36221621 L2.28428085,27.7842402 L21.0363804,27.7842402 L21.0363804,4.36221621 C21.0363804,1.97295256 19.0815283,0.0181004822 16.6922647,0.0181004822 Z M19.1973714,25.974192 L4.0653683,25.974192 L4.0653683,4.36221621 C4.0653683,2.96847908 5.20569868,1.8281487 6.59943581,1.8281487 L16.6633039,1.8281487 C18.057041,1.8281487 19.1973714,2.96847908 19.1973714,4.36221621 L19.1973714,25.974192 Z"/>
    <path fill="#74E3FF" d="M6.85284256,5.61114948 L10.8675295,5.61114948 L10.8675295,7.44653838 L6.85284256,7.44653838 L6.85284256,5.61114948 Z M12.5110533,5.61114948 L16.5257402,5.61114948 L16.5257402,7.44653838 L12.5110533,7.44653838 L12.5110533,5.61114948 Z M6.85284256,12.7137787 L10.8675295,12.7137787 L10.8675295,14.5491676 L6.85284256,14.5491676 L6.85284256,12.7137787 Z M12.5110533,12.7137787 L16.5257402,12.7137787 L16.5257402,14.5491676 L12.5110533,14.5491676 L12.5110533,12.7137787 Z M6.85284256,19.8272682 L10.8675295,19.8272682 L10.8675295,21.6626571 L6.85284256,21.6626571 L6.85284256,19.8272682 Z M12.5110533,19.8272682 L16.5257402,19.8272682 L16.5257402,21.6626571 L12.5110533,21.6626571 L12.5110533,19.8272682 Z M22.7197253,15.4578118 L26.7344122,15.4578118 L26.7344122,17.2932007 L22.7197253,17.2932007 L22.7197253,15.4578118 Z M22.7197253,20.1892778 L26.7344122,20.1892778 L26.7344122,22.0246667 L22.7197253,22.0246667 L22.7197253,20.1892778 Z"/>
    <path fill="#00C9FC" d="M25.7425058,8.05109448 L19.2263322,8.05109448 L19.2263322,27.7806201 L30.0866215,27.7806201 L30.0866215,12.3952102 C30.0866215,10.0059466 28.1317694,8.05109448 25.7425058,8.05109448 Z M28.2765733,25.9705719 L21.0363804,25.9705719 L21.0363804,9.8611427 L25.7425058,9.8611427 C27.1362429,9.8611427 28.2765733,11.0014731 28.2765733,12.3952102 L28.2765733,25.9705719 Z"/>
  </g>
</svg>
