<svg xmlns="http://www.w3.org/2000/svg" width="28" height="29" viewBox="0 0 28 29">
  <g fill="none" transform="translate(.786 .616)">
    <path fill="#00C9FC" d="M24.8048044,27.7212718 L2.2194589,27.7212718 C0.995703357,27.7006757 0.0191731252,26.6940711 0.0356945555,25.4702538 L0.00404579692,5.72538442 C-0.00183095213,5.14443245 0.226355938,4.5855624 0.637172029,4.1747463 C1.04798812,3.76393021 1.60685817,3.53574331 2.18781014,3.54162005 L17.7075702,3.54162005 C18.2321182,3.54225661 18.7394868,3.72866551 19.1396766,4.06778068 L26.2507571,11.3193025 C26.7141876,11.7536026 26.9691402,12.3657768 26.9509858,13.0006428 L26.9846126,25.5355294 C26.9915517,26.1162924 26.7643163,26.67538 26.3541841,27.0866287 C25.9440519,27.4978774 25.3855842,27.7266319 24.8048044,27.7212718 Z M2.18781014,4.99944103 C1.76689748,4.99943962 1.4253743,5.34007802 1.42428384,5.76098926 L1.45988869,25.5019026 C1.45988726,25.9228152 1.80052569,26.2643384 2.22143695,26.2654289 L24.8048044,26.2654289 C25.2249448,26.2643418 25.5652656,25.924021 25.5663527,25.5038806 L25.5327258,12.967016 C25.5324435,12.7427188 25.4332973,12.5299524 25.2617333,12.3854701 L18.1526309,5.13197018 C18.0223071,5.04258661 17.8675682,4.9956123 17.7095483,4.99746297 L2.18781014,4.99944103 Z"/>
    <path fill="#74E3FF" d="M12.2877203,4.53855597 C12.2767583,4.00290893 12.1695563,3.47359891 11.9712327,2.97589851 C11.7666396,2.44086168 11.466356,1.94753863 11.0850675,1.52005559 C10.6802432,1.07077029 10.1918073,0.704611328 9.64702697,0.442019744 C9.03820171,0.151461015 8.36903643,0.00976340903 7.69469418,0.0286078524 C7.03319029,0.0228043557 6.37950148,0.17183185 5.7858784,0.463778269 C5.24951872,0.731202246 4.77150494,1.10231843 4.37948668,1.55566044 C4.00365561,1.98800706 3.71003368,2.4854214 3.51310191,3.02337165 C3.4458483,3.20930811 3.37266055,3.36359582 3.31529718,3.54359811 L4.67817186,3.54359811 L4.71179864,3.44865183 C4.83949019,3.06998845 5.03671366,2.71847451 5.29334459,2.41215498 C5.56745526,2.09268587 5.90579586,1.83454952 6.2863244,1.65456283 C6.73181567,1.45137815 7.21698603,1.35001944 7.70656247,1.35785571 C8.16930085,1.34658258 8.62835394,1.44272644 9.04767862,1.63873845 C9.43458003,1.8206337 9.78202786,2.07668326 10.0703291,2.39237451 C10.3472562,2.6964061 10.5700428,3.0456391 10.7290189,3.42491528 C10.8826891,3.78403675 10.9646672,4.16973729 10.9703407,4.5603145 L11.0771553,12.5773407 C11.0879209,12.9180599 11.0286771,13.2573656 10.9030871,13.5742766 C10.7921538,13.8459839 10.6280621,14.092794 10.4204435,14.30022 C10.2147965,14.500951 9.96768681,14.6542131 9.69647817,14.7492368 C9.40615765,14.8520589 9.10050079,14.9048967 8.79251049,14.9055025 C8.25077649,14.9267652 7.72635287,14.7125233 7.35447001,14.3180224 C6.96029083,13.8342968 6.7625712,13.2199536 6.80061674,12.5971212 L6.71160461,8.83487496 C6.69531526,8.54607962 6.8016142,8.26381282 7.00435561,8.05750234 C7.18082022,7.8717125 7.42464127,7.76477344 7.68084783,7.76079523 C7.96373215,7.74498085 8.23591953,7.87106219 8.40679124,8.09706328 C8.57282166,8.30087412 8.66610005,8.55425722 8.6718496,8.81707255 L8.75492759,11.9028265 C8.76713666,12.0456618 8.85678599,12.1702592 8.98833719,12.2272263 C9.1151519,12.3082381 9.26126784,12.3539847 9.41163934,12.3597555 C9.56245543,12.3513989 9.70872728,12.3051361 9.83691953,12.2252483 C9.97022729,12.170484 10.0607669,12.0446492 10.0703291,11.9008485 L9.97736091,8.80520426 C9.98677932,8.37819609 9.91495451,7.95328858 9.76570983,7.55310024 C9.65062772,7.25635334 9.46931534,6.98979709 9.23559311,6.77374956 C9.02474925,6.58511655 8.77278792,6.44829883 8.49975946,6.37418397 C8.22496327,6.29945189 7.9418589,6.25957804 7.65711127,6.25550114 C7.40182478,6.25462147 7.14804937,6.29469127 6.90545324,6.37418397 C6.63105105,6.45990646 6.37860638,6.60435341 6.16566351,6.79748612 C5.92692455,7.01853249 5.73752082,7.28747231 5.60983217,7.58672705 C5.44993734,7.97971217 5.37966061,8.40339976 5.40411524,8.82696278 C5.40675264,9.07883415 5.40543394,9.30696894 5.40015916,9.51136718 C5.39488435,9.68675405 5.39488435,9.84631654 5.40015916,9.99005467 L5.40807136,10.2274204 L5.47334691,12.6089895 C5.47432183,13.092856 5.55725427,13.5730616 5.7186248,14.0292275 C5.86745196,14.4527218 6.09646202,14.8435836 6.39313896,15.1804511 C6.6842201,15.5080189 7.03977199,15.7719893 7.43754799,15.9558457 C7.86706764,16.150285 8.33503396,16.2449603 8.80635681,16.2327723 C9.29130762,16.2325882 9.77091981,16.1315463 10.2147266,15.9360652 C11.075832,15.5542845 11.7586217,14.8580513 12.1235423,13.9896666 C12.3109515,13.5421188 12.4032362,13.0604868 12.3945348,12.5753626 L12.2877203,4.53855597 Z"/>
    <polygon fill="#00C9FC" points="5.996 18.45 21.165 18.45 21.165 20.078 5.996 20.078"/>
    <polygon fill="#00C9FC" points="5.996 21.706 16.283 21.706 16.283 23.334 5.996 23.334"/>
  </g>
</svg>
