<?xml version="1.0" encoding="UTF-8"?>
<svg width="32px" height="29px" viewBox="0 0 32 29" version="1.1" xmlns="http://www.w3.org/2000/svg" xmlns:xlink="http://www.w3.org/1999/xlink">
    <!-- Generator: Sketch 49.2 (51160) - http://www.bohemiancoding.com/sketch -->
    <title>xiangqingmoshi</title>
    <desc>Created with Sketch.</desc>
    <defs></defs>
    <g id="宣管通联列表及详情的切图标注" stroke="none" stroke-width="1" fill="none" fill-rule="evenodd">
        <g id="5通联详情-约稿详情" transform="translate(-39.000000, -31.000000)" fill="#FDAF07" fill-rule="nonzero">
            <g id="xiangqingmoshi" transform="translate(39.000000, 31.500000)">
                <path d="M2.27279317,2.67447013e-16 L29.5874824,2.67447013e-16 C30.9107465,0.0749376979 31.924912,1.20475365 31.8570703,2.52840054 L31.8570703,25.3437313 C31.924912,26.6673782 30.9107465,27.7971942 29.5874824,27.8721319 L2.27279317,27.8721319 C0.949529045,27.7971942 -0.064636448,26.6673782 0.00320529516,25.3437313 L0.00320529516,2.52840054 C-0.064636448,1.20475365 0.949529045,0.0749376979 2.27279317,2.67447013e-16 Z M11.629866,19.172045 L9.00192214,16.5441011 C8.56018255,16.1089742 7.8509685,16.1089742 7.40922891,16.5441011 L4.78128504,19.172045 C4.35656683,19.6179991 4.35656683,20.3187841 4.78128504,20.7647382 L7.40922891,23.3926821 C7.85518302,23.8174003 8.55596804,23.8174003 9.00192214,23.3926821 L11.629866,20.7448296 C11.8659715,20.5519962 12.0029413,20.2632824 12.0029413,19.9584373 C12.0029413,19.6535922 11.8659715,19.3648784 11.629866,19.172045 Z M9.61909078,4.79798842 L5.97580497,4.79798842 C5.65758748,4.78100385 5.34689264,4.89860188 5.11967307,5.12203446 C4.89245351,5.34546703 4.76965068,5.65414169 4.78128504,5.97259967 L4.78128504,9.65570282 C4.78626238,9.96383828 4.9163469,10.256698 5.14164034,10.4669719 C5.36693379,10.6772457 5.66805856,10.7868481 5.97580497,10.7705881 L9.61909078,10.7705881 C10.2303663,10.7599548 10.7233428,10.2669783 10.7339761,9.65570282 L10.7339761,5.97259967 C10.7700001,5.66200199 10.6664136,5.35142332 10.4511567,5.1246347 C10.2358997,4.89784609 9.93114424,4.77820745 9.61909078,4.79798842 Z M26.8799039,8.75981286 L15.6514165,8.75981286 C15.0541565,8.75981286 14.6758918,9.0783515 14.6758918,9.55615948 C14.6758918,10.0339675 15.0541565,10.3525061 15.6514165,10.3525061 L26.8799039,10.3525061 C27.4572552,10.3525061 27.8554285,10.0339675 27.8554285,9.55615948 C27.8554285,9.0783515 27.4572552,8.75981286 26.8799039,8.75981286 Z M26.8799039,21.3022722 L15.6514165,21.3022722 C15.0541565,21.3022722 14.6758918,21.6208108 14.6758918,22.0986188 C14.6758918,22.5764268 15.0541565,22.8949654 15.6514165,22.8949654 L26.8799039,22.8949654 C27.4572552,22.8949654 27.8554285,22.5764268 27.8554285,22.0986188 C27.8554285,21.6208108 27.4572552,21.3022722 26.8799039,21.3022722 Z M26.8799039,16.9223658 L15.6514165,16.9223658 C15.0541565,16.9223658 14.6758918,17.2409044 14.6758918,17.7187124 C14.6758918,18.1965204 15.0541565,18.515059 15.6514165,18.515059 L26.8799039,18.515059 C27.4572552,18.515059 27.8554285,18.1965204 27.8554285,17.7187124 C27.8554285,17.2409044 27.4572552,16.9223658 26.8799039,16.9223658 Z M15.6514165,6.370773 L26.8799039,6.370773 C27.4572552,6.370773 27.8554285,6.05223435 27.8554285,5.57442637 C27.8554285,5.09661839 27.4572552,4.77807974 26.8799039,4.77807974 L15.6514165,4.77807974 C15.0541565,4.77807974 14.6758918,5.09661839 14.6758918,5.57442637 C14.6758918,6.05223435 15.0541565,6.370773 15.6514165,6.370773 Z" id="Combined-Shape"></path>
            </g>
        </g>
    </g>
</svg>