<?xml version="1.0" encoding="UTF-8"?>
<svg width="26px" height="38px" viewBox="0 0 26 38" version="1.1" xmlns="http://www.w3.org/2000/svg" xmlns:xlink="http://www.w3.org/1999/xlink">
    <!-- Generator: Sketch 49.2 (51160) - http://www.bohemiancoding.com/sketch -->
    <title>arrow_up</title>
    <desc>Created with Sketch.</desc>
    <defs></defs>
    <g id="宣管通联统计及蜂鸟任务切图标注" stroke="none" stroke-width="1" fill="none" fill-rule="evenodd">
        <g id="8通联协作-统计" transform="translate(-187.000000, -624.000000)" fill="#FF446D" fill-rule="nonzero">
            <g id="Group-7" transform="translate(20.000000, 585.333333)">
                <g id="arrow_up" transform="translate(179.741717, 57.500000) scale(1, -1) rotate(90.000000) translate(-179.741717, -57.500000) translate(161.241717, 45.000000)">
                    <path d="M5.89260443e-16,12.4396552 C-9.07238814e-05,13.3878246 0.505699541,14.2640081 1.32682324,14.738119 C2.14794694,15.2122299 3.15963925,15.2122299 3.98076296,14.738119 C4.80188666,14.2640081 5.30767692,13.3878246 5.3075862,12.4396552 C5.30767692,11.4914857 4.80188666,10.6153022 3.98076296,10.1411913 C3.15963925,9.66708041 2.14794694,9.66708041 1.32682324,10.1411913 C0.505699541,10.6153022 -9.07238814e-05,11.4914857 5.89260443e-16,12.4396552 Z" id="Shape"></path>
                    <path d="M8.79068965,12.4396551 C8.79068963,13.3877641 9.29649973,14.2638529 10.1175862,14.7379074 C10.9386726,15.2119619 11.9502929,15.2119619 12.7713793,14.7379074 C13.5924658,14.2638529 14.0982759,13.3877641 14.0982759,12.4396551 C14.0982759,10.9740057 12.9101322,9.78586203 11.4444828,9.78586203 C9.97883329,9.78586203 8.79068965,10.9740057 8.79068965,12.4396551 Z" id="Shape"></path>
                    <path d="M17.4155172,12.4396552 C17.4154265,13.3878246 17.9212168,14.2640081 18.7423405,14.738119 C19.5634642,15.2122299 20.5751565,15.2122299 21.3962802,14.738119 C22.2174039,14.2640081 22.7231942,13.3878246 22.7231034,12.4396552 C22.7231942,11.4914857 22.2174039,10.6153022 21.3962802,10.1411913 C20.5751565,9.66708041 19.5634642,9.66708041 18.7423405,10.1411913 C17.9212168,10.6153022 17.4154265,11.4914857 17.4155172,12.4396552 Z" id="Shape"></path>
                    <polygon id="Shape" points="23.3227586 0 20.8348276 2.98551724 30.9524138 13.1031035 20.8348276 21.3962069 23.3227586 24.8793103 36.5917241 13.1031035"></polygon>
                </g>
            </g>
        </g>
    </g>
</svg>