<?xml version="1.0" encoding="UTF-8"?>
<svg width="29px" height="30px" viewBox="0 0 29 30" version="1.1" xmlns="http://www.w3.org/2000/svg" xmlns:xlink="http://www.w3.org/1999/xlink">
    <!-- Generator: Sketch 49.2 (51160) - http://www.bohemiancoding.com/sketch -->
    <title>Combined Shape</title>
    <desc>Created with Sketch.</desc>
    <defs></defs>
    <g id="宣管通联统计及蜂鸟任务切图标注" stroke="none" stroke-width="1" fill="none" fill-rule="evenodd">
        <g id="9蜂鸟任务-列表" transform="translate(-42.000000, -30.000000)" fill="#FDAF07" fill-rule="nonzero">
            <path d="M62.625,31.4969325 C62.6401793,31.6642844 62.6401793,31.8326481 62.625,32 C62.6781871,33.2070178 61.9537423,34.2620801 60.75,34.4539877 L51.6085865,34.4539877 C50.3974646,34.2595622 49.5125877,33.2156878 49.5283776,32 C49.5144218,31.8325959 49.5144218,31.6643365 49.5283776,31.4969325 L45.1822267,31.4969325 C43.3989796,31.5821117 41.9979317,33.0406853 42.0000023,34.809816 L42.0000023,56.6503067 C42.0000023,57.5387006 42.3561442,58.3907082 42.9900808,59.0188976 C43.6240174,59.6470869 44.48382,60 45.3803418,60 L66.7446605,60 C68.6087503,59.9932706 70.1182091,58.4974966 70.125,56.6503067 L70.125,34.809816 C70.1215487,33.0521325 68.7382139,31.6007041 66.96754,31.4969325 L62.625,31.4969325 Z M63.1115797,43.9141104 L55.3324386,51.4846625 C54.8194659,51.9453614 54.0417304,51.9453614 53.5287577,51.4846625 L49.0134203,47.0920245 C48.777331,46.8611773 48.6442478,46.5449187 48.6442478,46.2147239 C48.6442478,45.8845292 48.777331,45.5682705 49.0134203,45.3374233 C49.5195007,44.8590732 50.3110208,44.8590732 50.8171012,45.3374233 L54.4367331,48.8466258 L61.3078988,42.1595092 C61.8186698,41.6930991 62.6008088,41.6930991 63.1115797,42.1595092 C63.347669,42.3903564 63.4807522,42.7066151 63.4807522,43.0368098 C63.4807522,43.3670045 63.347669,43.6832632 63.1115797,43.9141104 Z M59.7591193,30 C60.6074423,30.0525649 61.2546623,30.7173975 61.2163953,31.4969325 C61.262471,32.2699176 60.626928,32.9349581 59.7858584,32.993865 L52.3791528,32.993865 C51.5255112,32.9476878 50.870482,32.2809503 50.9085073,31.4969325 C50.8628936,30.7150127 51.5140539,30.0461326 52.3657833,30 L59.7591193,30 Z" id="Combined-Shape"></path>
        </g>
    </g>
</svg>