<?xml version="1.0" encoding="UTF-8"?>
<svg width="23px" height="22px" viewBox="0 0 23 22" version="1.1" xmlns="http://www.w3.org/2000/svg" xmlns:xlink="http://www.w3.org/1999/xlink">
    <!-- Generator: Sketch 49.2 (51160) - http://www.bohemiancoding.com/sketch -->
    <title>icon_ssxt</title>
    <desc>Created with Sketch.</desc>
    <defs></defs>
    <g id="宣管通联统计及蜂鸟任务切图标注" stroke="none" stroke-width="1" fill="none" fill-rule="evenodd" opacity="0.384001359">
        <g id="10任务详情" transform="translate(-27.000000, -239.000000)" fill="#FFFFFF" fill-rule="nonzero">
            <g id="icon_ssxt" transform="translate(27.500000, 239.000000)">
                <path d="M1.76,0 L20.24,0 C21.1933333,0 22,0.806666667 22,1.76 L22,20.24 C22,21.1933333 21.1933333,22 20.24,22 L1.76,22 C0.806666667,22 0,21.1933333 0,20.24 L0,1.76 C0,0.806666667 0.806666667,0 1.76,0 Z M4.84,5.74666667 L4.84,6.62666667 C4.84,6.77333333 4.91333333,6.84666667 5.06,6.84666667 L16.72,6.84666667 C16.8666667,6.84666667 16.94,6.77333333 16.94,6.62666667 L16.94,5.82 C16.94,5.67333333 16.8666667,5.6 16.72,5.6 L5.06,5.6 C4.91333333,5.6 4.84,5.6 4.84,5.74666667 Z M5.06,13.8022222 L16.72,13.8022222 C16.8666667,13.8022222 16.94,13.7288889 16.94,13.5822222 L16.94,12.7755556 C16.94,12.6288889 16.8666667,12.5555556 16.72,12.5555556 L5.06,12.5555556 C4.91333333,12.5555556 4.84,12.6288889 4.84,12.7755556 L4.84,13.5822222 C4.84,13.7288889 4.91333333,13.8022222 5.06,13.8022222 Z M16.6466667,9.07777778 L5.06,9.07777778 C4.91333333,9.07777778 4.84,9.15111111 4.84,9.29777778 L4.84,10.1044444 C4.84,10.2511111 4.91333333,10.3244444 5.06,10.3244444 L16.72,10.3244444 C16.8666667,10.3244444 16.94,10.2511111 16.94,10.1044444 L16.94,9.29777778 C16.94,9.15111111 16.8666667,9.07777778 16.6466667,9.07777778 Z M12.1733333,16.0333333 L5.06,16.0333333 C4.91333333,16.0333333 4.84,16.1066667 4.84,16.2533333 L4.84,17.06 C4.84,17.2066667 4.91333333,17.28 5.06,17.28 L12.1733333,17.28 C12.32,17.28 12.3933333,17.2066667 12.3933333,17.06 L12.3933333,16.2533333 C12.3933333,16.1066667 12.32,16.0333333 12.1733333,16.0333333 Z" id="Combined-Shape"></path>
            </g>
        </g>
    </g>
</svg>