<?xml version="1.0" encoding="UTF-8"?>
<svg width="18px" height="23px" viewBox="0 0 18 23" version="1.1" xmlns="http://www.w3.org/2000/svg" xmlns:xlink="http://www.w3.org/1999/xlink">
    <!-- Generator: Sketch 49.2 (51160) - http://www.bohemiancoding.com/sketch -->
    <title>icon_cjr</title>
    <desc>Created with Sketch.</desc>
    <defs></defs>
    <g id="宣管通联统计及蜂鸟任务切图标注" stroke="none" stroke-width="1" fill="none" fill-rule="evenodd" opacity="0.38">
        <g id="10任务详情" transform="translate(-705.000000, -281.000000)" fill="#FFFFFF" fill-rule="nonzero">
            <g id="icon_cjr" transform="translate(705.000000, 281.000000)">
                <path d="M12.7223602,12.4836295 C15.7097327,13.8776063 17.7716975,16.8506415 17.7716975,20.2922458 C17.7716975,23.8765714 0.0116897842,23.9261003 0.0116897842,20.2922458 C0.0116898071,16.855855 2.06713762,13.8873817 5.04603808,12.4901464 C6.14544849,13.1985395 7.46187354,13.6110628 8.87865971,13.6110628 C10.2418885,13.6143454 11.5768962,13.2227612 12.7223602,12.4836295 Z M4.65697581,9.93976266 C4.10430046,9.40288279 3.66409686,8.76129768 3.36205671,8.05245229 C3.06358013,7.34862107 2.90782489,6.58744065 2.90782489,5.82626023 C2.90876165,5.06106844 3.06322063,4.30384271 3.36205671,3.59941646 C3.6647521,2.89112242 4.10487754,2.24987271 4.65697581,1.71275778 C5.21435041,1.17034772 5.87227316,0.741989536 6.59381504,0.451726847 C8.05970701,-0.138172695 9.69696072,-0.138172695 11.1628527,0.451726847 C11.8842014,0.741989695 12.5419105,1.17035293 13.0990402,1.71275778 C14.2147739,2.79063624 14.8456853,4.2749124 14.8475394,5.82626023 C14.8462159,6.59120205 14.6917707,7.34813876 14.3933076,8.05245229 C14.0912768,8.76114148 13.651321,9.40268825 13.0990402,9.93976266 C12.5413624,10.4816441 11.8838068,10.9101287 11.1628527,11.2014453 C9.69688212,11.7909388 8.05978561,11.7909388 6.59381504,11.2014453 C5.87241339,10.9106167 5.21455494,10.4820791 4.65697581,9.93976266 Z" id="Combined-Shape"></path>
            </g>
        </g>
    </g>
</svg>