<?xml version="1.0" encoding="UTF-8"?>
<svg width="27px" height="22px" viewBox="0 0 27 22" version="1.1" xmlns="http://www.w3.org/2000/svg" xmlns:xlink="http://www.w3.org/1999/xlink">
    <!-- Generator: Sketch 49.2 (51160) - http://www.bohemiancoding.com/sketch -->
    <title>icon_zxr</title>
    <desc>Created with Sketch.</desc>
    <defs></defs>
    <g id="宣管通联统计及蜂鸟任务切图标注" stroke="none" stroke-width="1" fill="none" fill-rule="evenodd">
        <g id="10任务详情" transform="translate(-700.000000, -239.000000)" fill-rule="nonzero">
            <g id="icon_zxr" transform="translate(700.754666, 238.996094)">
                <path d="M18.4156758,21.8018348 L18.4156758,21.7962933 L7.71490436,21.7962933 C7.56528198,21.8073764 7.42674274,21.7519607 7.3214529,21.6466709 C7.21616305,21.541381 7.16074737,21.3973002 7.17183051,21.2532194 L7.17183051,14.8083736 C7.10533168,12.5917456 8.80659363,10.7242366 11.0232216,10.5856973 L15.0962755,10.5856973 C17.3129035,10.7242366 19.019707,12.5917456 18.9587497,14.8083736 L18.9587497,21.258761 C18.9698328,21.4083834 18.9144172,21.5469226 18.8091273,21.6522125 C18.7038375,21.7575023 18.5597567,21.812918 18.4156758,21.8018348 Z M13.0569778,9.71012929 C11.7713335,9.70458776 10.5355634,9.18922173 9.6378291,8.26932113 C8.73455323,7.35496207 8.23027035,6.11365042 8.24135349,4.82800618 C8.24135354,2.16805262 10.4025658,0.00684037709 13.0625193,0.00684037709 C15.7224729,0.00684037709 17.8836851,2.16251105 17.8836851,4.82800618 C17.8947683,6.11919199 17.3904854,7.36050364 16.4872095,8.27486267 C15.5783921,9.18922173 14.3481636,9.71012929 13.0569778,9.71012929 Z" id="Combined-Shape" fill="#FFFFFF" opacity="0.38"></path>
                <path d="M4.83882959,21.8018348 C4.9829104,21.812918 5.12699121,21.7575023 5.22673948,21.6522125 C5.32648775,21.5469226 5.38190344,21.4028418 5.37082029,21.258761 L5.37082029,14.4703378 C5.42069441,14.3151739 5.38190344,14.1489268 5.26553045,14.0325538 C5.17132375,13.9161808 5.03278452,13.8552236 4.88316213,13.8718483 L3.22623272,13.8718483 C1.45847194,13.888473 0.0287468909,15.3126565 0.0121221721,17.0804173 L0.0121221721,21.2421363 C0.00658059912,21.3862171 0.0564547127,21.5302979 0.156202983,21.6300462 C0.255951253,21.735336 0.400032064,21.7907517 0.544112875,21.7852101 L4.83328802,21.7852101 L4.83328802,21.8018348 L4.83882959,21.8018348 Z M25.5698426,21.8018348 C25.7139234,21.812918 25.8580042,21.7575023 25.9632941,21.6522125 C26.0685839,21.5469226 26.1239996,21.4083834 26.1129165,21.258761 L26.1129165,17.0748757 C26.118458,16.2159324 25.7804223,15.3902384 25.1763911,14.7806657 C24.57236,14.1710931 23.7522077,13.8275157 22.8932643,13.8219742 L21.2363349,13.8219742 C21.1199619,13.8219742 20.9149239,13.8718483 20.8539666,13.9826797 C20.7874678,14.1212189 20.7542183,14.2708413 20.7486768,14.4204637 L20.7486768,21.2088868 C20.7375937,21.3529677 20.7874678,21.4970485 20.8927576,21.6023383 C20.9925059,21.7076281 21.1365867,21.7630438 21.2806675,21.7519607 L25.5698426,21.8018348 Z M22.4111478,13.0239881 C23.9572457,13.0461544 25.3592629,12.1373369 25.9688357,10.7131534 C26.5784083,9.29451153 26.2625388,7.64866527 25.1819327,6.54589289 C24.095785,5.44312048 22.4554803,5.11062627 21.0257553,5.69249109 C19.5960302,6.27989752 18.6650465,7.67083156 18.6650465,9.21138802 C18.6539634,10.2144122 19.0418732,11.1786453 19.7456526,11.8935078 C20.4438904,12.6139119 21.4081236,13.0184465 22.4111478,13.0239881 Z M3.81918073,13.0239881 C4.82220487,13.0239881 5.78643805,12.6194535 6.49021743,11.904591 C7.19399681,11.1897284 7.5819067,10.2199537 7.56528198,9.21692955 C7.56528198,7.87586963 6.85041946,6.64009955 5.69223135,5.96956961 C4.53404325,5.29903967 3.1043182,5.29903967 1.94058853,5.96956961 C0.78136365,6.64010159 0.0675011077,7.87774493 0.0675379015,9.21692955 C0.0509131827,10.2199537 0.438823074,11.1897284 1.14260245,11.904591 C1.8519234,12.6194535 2.81615658,13.0239881 3.81918073,13.0239881 Z" id="Shape" fill="#3069AF"></path>
            </g>
        </g>
    </g>
</svg>