<?xml version="1.0" encoding="UTF-8"?>
<svg width="23px" height="22px" viewBox="0 0 23 22" version="1.1" xmlns="http://www.w3.org/2000/svg" xmlns:xlink="http://www.w3.org/1999/xlink">
    <!-- Generator: Sketch 49.2 (51160) - http://www.bohemiancoding.com/sketch -->
    <title>icon_time</title>
    <desc>Created with Sketch.</desc>
    <defs></defs>
    <g id="宣管通联统计及蜂鸟任务切图标注" stroke="none" stroke-width="1" fill="none" fill-rule="evenodd" opacity="0.384001359">
        <g id="10任务详情" transform="translate(-27.000000, -284.000000)" fill="#FFFFFF" fill-rule="nonzero">
            <g id="icon_time" transform="translate(27.500000, 284.000000)">
                <path d="M18.7654967,3.21575977 C23.0499162,7.50430028 23.0499162,14.4769561 18.7654967,18.7627493 C16.70652,20.8287555 13.9074247,21.9864732 10.9906282,21.9784679 C8.07342736,21.9878298 5.27393186,20.8287526 3.21713343,18.760002 C1.14154574,16.6844144 4.12097561e-05,13.9261218 4.12097561e-05,10.9892546 C-0.00811001898,8.0722879 1.15252423,5.2736059 3.22262802,3.21850706 C5.27842109,1.1507744 8.07622832,-0.00821823085 10.9920019,4.12097561e-05 C13.9083528,-0.00775012501 16.7069422,1.14996286 18.7654967,3.21575977 Z M15.7297265,13.9989254 L11.9315796,11.8010827 L11.9315796,5.80921412 C11.9315022,5.30325142 11.5213166,4.89312868 11.0153539,4.89312868 C10.5093912,4.89312868 10.0992057,5.30325142 10.0991283,5.80921412 L10.0991283,12.2200464 C10.0991283,12.5579647 10.522213,12.8450579 10.7955697,13.0030279 C10.8724942,13.1156673 11.0812892,13.2173176 11.2062915,13.2928684 L14.9865809,15.5813721 C15.4206548,15.834124 15.8986856,15.680275 16.1514375,15.2462011 C16.4028158,14.8121271 16.169295,14.2516773 15.7297265,13.9989254 Z" id="Combined-Shape"></path>
            </g>
        </g>
    </g>
</svg>