<?xml version="1.0" encoding="UTF-8"?>
<svg width="27px" height="28px" viewBox="0 0 27 28" version="1.1" xmlns="http://www.w3.org/2000/svg" xmlns:xlink="http://www.w3.org/1999/xlink">
    <!-- Generator: Sketch 49.2 (51160) - http://www.bohemiancoding.com/sketch -->
    <title>icon_rwdt</title>
    <desc>Created with Sketch.</desc>
    <defs></defs>
    <g id="宣管通联统计及蜂鸟任务切图标注" stroke="none" stroke-width="1" fill="none" fill-rule="evenodd">
        <g id="10任务详情" transform="translate(-1408.000000, -113.000000)" fill-rule="nonzero">
            <g id="Group-3" transform="translate(1380.000000, 92.000000)">
                <g id="icon_rwdt" transform="translate(28.285714, 21.000000)">
                    <path d="M2.18954212,16.2366582 L0.0293504305,16.2718787 C0.598748783,22.4824298 5.55310146,27.4309124 11.7636526,27.9885706 L11.7636526,25.8283789 C6.72711868,25.2883309 2.72959004,21.2790621 2.18954212,16.2366582 Z M8.91666079,5.03653388 L10.4428832,8.31204193 L12.6617757,2.21889255 L6.56862635,0 L8.00679745,3.08179521 C3.6335833,4.88391164 0.463736802,9.01058217 0.0293504305,13.9179742 L2.1954122,13.8827536 C2.63566866,9.85000449 5.28894758,6.49231523 8.91666079,5.03653388 Z M23.7034077,13.9179742 L25.8635994,13.8827536 C25.294201,7.67220254 20.3398484,2.72371995 14.1292973,2.16606177 L14.1292973,4.32625346 C19.1658311,4.86630138 23.1633598,8.87557019 23.7034077,13.9179742 Z" id="Shape" fill="#00C9FC"></path>
                    <path d="M8.66424709,15.0802512 C8.66424705,16.6111925 9.48099446,18.0258406 10.8068285,18.7913112 C12.1326625,19.5567819 13.7661574,19.5567819 15.0919914,18.7913112 C16.4178254,18.0258406 17.2345729,16.6111925 17.2345728,15.0802512 C17.2345729,13.5493099 16.4178254,12.1346619 15.0919914,11.3691912 C13.7661574,10.6037206 12.1326625,10.6037206 10.8068285,11.3691912 C9.48099446,12.1346619 8.66424705,13.5493099 8.66424709,15.0802512 Z" id="Shape" fill="#74E3FF"></path>
                    <path d="M23.6975376,16.2777488 C23.1457495,21.3025425 19.1482209,25.2883309 14.1234272,25.834249 L14.1234272,27.9944406 C20.3515885,27.4309124 25.3118113,22.4706896 25.8635994,16.2366582 L23.6975376,16.2777488 Z" id="Shape" fill="#00C9FC"></path>
                </g>
            </g>
        </g>
    </g>
</svg>