<?xml version="1.0" encoding="UTF-8"?>
<svg width="31px" height="30px" viewBox="0 0 31 30" version="1.1" xmlns="http://www.w3.org/2000/svg" xmlns:xlink="http://www.w3.org/1999/xlink">
    <!-- Generator: Sketch 49.2 (51160) - http://www.bohemiancoding.com/sketch -->
    <title>renwu</title>
    <desc>Created with Sketch.</desc>
    <defs></defs>
    <g id="宣管通联统计及蜂鸟任务切图标注" stroke="none" stroke-width="1" fill="none" fill-rule="evenodd">
        <g id="10任务详情" transform="translate(-40.000000, -31.000000)" fill="#FDAF07" fill-rule="nonzero">
            <g id="renwu" transform="translate(40.000000, 31.000000)">
                <path d="M8.55606517,17.9643569 C7.80762612,17.9643569 7.35856267,18.4134204 7.35856267,19.1618594 C7.35856267,19.9102985 7.80762612,20.3593619 8.55606517,20.359362 C9.15481642,20.359362 9.75356767,19.9102985 9.75356773,19.1618594 C9.75356778,18.4134203 9.30450428,17.9643569 8.55606517,17.9643569 Z" id="Shape"></path>
                <path d="M25.9198517,0.00181911146 L4.66418202,0.00181911146 C2.11948916,0.00181911146 0.0238597569,2.09744852 0.0238597569,4.64214137 L0.0238597569,24.8499964 C0.0238597569,27.3946892 2.11948916,29.4903186 4.66418202,29.4903187 L25.9198517,29.4903187 C28.4645446,29.4903187 30.560174,27.3946893 30.560174,24.8499964 L30.560174,4.64214137 C30.560174,2.09744852 28.6142324,0.00181911146 25.9198517,0.00181911146 Z M8.55606517,22.754367 C6.61012357,22.754367 5.11324541,21.2574888 5.11324547,19.3115473 C5.11324552,17.3656057 6.61012362,15.8687275 8.55606517,15.8687275 C10.3523189,15.8687275 11.9988849,17.2159179 11.9988849,19.3115473 C11.9988849,21.2574889 10.5020068,22.754367 8.55606517,22.754367 Z M13.1963874,8.98308803 L9.15481648,13.024659 C8.70575303,13.1743468 8.70575303,13.3240347 8.25668958,13.3240346 C7.80762612,13.3240346 7.50825053,13.1743468 7.35856267,13.024659 L4.96355762,10.629654 C4.51449416,10.3302783 4.51449416,9.58183928 4.96355762,9.13277583 C5.26293327,8.68371238 6.01137232,8.68371238 6.46043577,9.13277583 L7.95731392,10.629654 L11.2504459,7.33652203 C11.6995093,7.03714637 12.2192587,6.59639895 13.0300677,7.19099224 C13.553975,7.58184375 13.6454509,8.53402458 13.1963874,8.98308803 Z M25.0217248,20.2096741 L14.6932656,20.2096741 C14.0945143,20.2096741 13.6454509,19.7606107 13.6454509,19.1618594 C13.6454509,18.5631082 13.9448265,18.1140447 14.6932656,18.1140447 L25.0217248,18.1140447 C25.6204761,18.1140447 26.0695395,18.5631082 26.0695395,19.1618594 C26.0695395,19.7606107 25.7701639,20.2096741 25.0217248,20.2096741 Z M25.0217248,11.2284052 L14.6932656,11.2284052 C14.0945143,11.2284052 13.6454509,10.9290296 13.6454509,10.1805905 C13.6454509,9.58183928 13.9448265,9.13277583 14.6932656,9.13277583 L25.0217248,9.13277583 C25.6204761,9.13277583 26.0695395,9.58183928 26.0695395,10.1805905 C26.0695395,10.7793418 25.7701639,11.2284052 25.0217248,11.2284052 Z" id="Shape"></path>
            </g>
        </g>
    </g>
</svg>