<?xml version="1.0" encoding="UTF-8"?>
<svg width="16px" height="16px" viewBox="0 0 16 16" version="1.1" xmlns="http://www.w3.org/2000/svg" xmlns:xlink="http://www.w3.org/1999/xlink">
    <!-- Generator: Sketch 49.2 (51160) - http://www.bohemiancoding.com/sketch -->
    <title>ic_navigation_5_mtbd_selected</title>
    <desc>Created with Sketch.</desc>
    <defs></defs>
    <g id="Pad控制端" stroke="none" stroke-width="1" fill="none" fill-rule="evenodd">
        <g id="02媒体榜单" transform="translate(-15.000000, -248.000000)">
            <g id="左侧导航" transform="translate(0.000000, 72.000000)">
                <g id="ic_navigation_5_mtbd_selected" transform="translate(15.000000, 176.000000)">
                    <rect id="bg" x="0" y="0" width="16" height="16" rx="1"></rect>
                    <path d="M1.5,5 L3.5,5 C3.77614237,5 4,5.22385763 4,5.5 L4,16 L1,16 L1,5.5 C1,5.22385763 1.22385763,5 1.5,5 Z M7.5,1 L9.5,1 C9.77614237,1 10,1.22385763 10,1.5 L10,16 L7,16 L7,1.5 C7,1.22385763 7.22385763,1 7.5,1 Z M13.5,8 L15.5,8 C15.7761424,8 16,8.22385763 16,8.5 L16,16 L13,16 L13,8.5 C13,8.22385763 13.2238576,8 13.5,8 Z" id="Combined-Shape" fill="#2E9DED"></path>
                </g>
            </g>
        </g>
    </g>
</svg>