<?xml version="1.0" encoding="UTF-8"?>
<svg width="16px" height="16px" viewBox="0 0 16 16" version="1.1" xmlns="http://www.w3.org/2000/svg" xmlns:xlink="http://www.w3.org/1999/xlink">
    <!-- Generator: Sketch 49.2 (51160) - http://www.bohemiancoding.com/sketch -->
    <title>ic_navigation_3_rddt_selected</title>
    <desc>Created with Sketch.</desc>
    <defs></defs>
    <g id="Pad控制端" stroke="none" stroke-width="1" fill="none" fill-rule="evenodd">
        <g id="02媒体榜单" transform="translate(-15.000000, -166.000000)">
            <g id="左侧导航" transform="translate(0.000000, 72.000000)">
                <g id="ic_navigation_3_rddt_selected" transform="translate(15.000000, 94.000000)">
                    <rect id="bg" x="0" y="0" width="16" height="16" rx="1"></rect>
                    <path d="M6.73431338,15.3174809 L6.65214797,15.3174809 C2.87434346,14.8247531 -2.40601503e-06,11.5397486 -2.40601503e-06,7.67989895 C-2.40601503e-06,3.40929444 3.44923669,0.0421966917 7.63767579,0.0421966917 C11.4154081,0.0421966917 14.6183194,2.75235609 15.1931405,6.53006436 C15.2752818,6.94069895 14.9468367,7.43345083 14.536178,7.43345083 C14.1255675,7.51559218 13.6327916,7.18712301 13.6327916,6.77651248 C13.1400397,3.81992902 10.6763044,1.68468692 7.63767579,1.68468692 C4.35262316,1.68468692 1.64248782,4.39482226 1.64248782,7.67989895 C1.64248782,10.7185275 3.94201263,13.2643802 6.89849985,13.6749907 C7.30911038,13.757132 7.63767579,14.1677666 7.63767579,14.5783771 C7.55553444,15.0711531 7.14492391,15.3174809 6.73431338,15.3174809 Z M7.22706526,12.2788547 L7.14492391,12.2788547 C4.76325774,12.0325269 3.03862617,10.0614713 3.03862617,7.67990135 C3.03862617,5.13392842 5.09172692,3.08082767 7.63767579,3.08082767 C9.93712842,3.08082767 11.9082081,4.80545925 12.2366532,7.10498406 C12.3187946,7.51559459 11.9903495,7.92622917 11.4975495,8.00837053 C11.0047976,8.09051188 10.6763044,7.76194647 10.594163,7.26926677 C10.4298803,5.79098707 9.11588331,4.64127278 7.63767579,4.64127278 C5.99511338,4.64127278 4.68111639,5.95526977 4.68111639,7.59773594 C4.68111639,9.15808481 5.83092692,10.3899405 7.30911038,10.5542232 C7.71974496,10.6363645 8.04831038,10.9648577 8.04831038,11.4576096 C8.04831038,12.0325269 7.63767579,12.2788547 7.22706526,12.2788547 Z M15.7680433,10.2257516 C16.0144914,10.3078929 16.0144914,10.7185275 15.9323501,10.882714 L12.7294147,12.5252764 L11.0869245,15.7280914 C10.9226418,15.9745636 10.5120313,15.9745636 10.4298899,15.6460463 L7.96617865,8.17265083 C7.88403729,7.92622677 8.04829594,7.67989895 8.37678917,7.76194406 L15.7680433,10.2257516 Z" id="Combined-Shape" fill="#2E9DED"></path>
                </g>
            </g>
        </g>
    </g>
</svg>