<?xml version="1.0" encoding="UTF-8"?>
<svg width="16px" height="16px" viewBox="0 0 16 16" version="1.1" xmlns="http://www.w3.org/2000/svg" xmlns:xlink="http://www.w3.org/1999/xlink">
    <!-- Generator: Sketch 49.2 (51160) - http://www.bohemiancoding.com/sketch -->
    <title>ic_navigation_4_zxxt_selected</title>
    <desc>Created with Sketch.</desc>
    <defs></defs>
    <g id="Pad控制端" stroke="none" stroke-width="1" fill="none" fill-rule="evenodd">
        <g id="02媒体榜单" transform="translate(-15.000000, -207.000000)">
            <g id="左侧导航" transform="translate(0.000000, 72.000000)">
                <g id="ic_navigation_4_zxxt_selected" transform="translate(15.000000, 135.000000)">
                    <rect id="bg" x="0" y="0" width="16" height="16" rx="1"></rect>
                    <path d="M5.4778988,11.6672386 L3.84099026,10.0303301 C3.64572811,9.83506794 3.32914562,9.83506794 3.13388348,10.0303301 L2.78033009,10.3838835 C2.58506794,10.5791456 2.58506794,10.8957281 2.78033009,11.0909903 L4.90165043,13.2123106 C4.929623,13.2402832 4.96008536,13.2642485 4.99232415,13.2842066 L5.13373429,13.4256167 C5.32899644,13.6208788 5.64557893,13.6208788 5.84084107,13.4256167 L10.1754057,9.09105205 C10.3706679,8.89578991 10.3706679,8.57920742 10.1754057,8.38394527 L9.82185233,8.03039188 C9.62659019,7.83512973 9.3100077,7.83512973 9.11474555,8.03039188 L5.4778988,11.6672386 Z M13.5,13 L13.5,4.5 C13.5,3.3954305 12.6045695,2.5 11.5,2.5 L3,2.5 L3,1 C3,0.44771525 3.44771525,1.01453063e-16 4,0 L13,0 C14.6568542,-3.04359188e-16 16,1.34314575 16,3 L16,12 C16,12.5522847 15.5522847,13 15,13 L13.5,13 Z M1,4 L11,4 C11.5522847,4 12,4.44771525 12,5 L12,15 C12,15.5522847 11.5522847,16 11,16 L1,16 C0.44771525,16 6.76353751e-17,15.5522847 0,15 L0,5 C-6.76353751e-17,4.44771525 0.44771525,4 1,4 Z" id="Combined-Shape" fill="#2E9DED"></path>
                </g>
            </g>
        </g>
    </g>
</svg>