<?xml version="1.0" encoding="UTF-8"?>
<svg width="16px" height="16px" viewBox="0 0 16 16" version="1.1" xmlns="http://www.w3.org/2000/svg" xmlns:xlink="http://www.w3.org/1999/xlink">
    <!-- Generator: Sketch 49.2 (51160) - http://www.bohemiancoding.com/sketch -->
    <title>ic_navigation_6_cbfx_selected</title>
    <desc>Created with Sketch.</desc>
    <defs></defs>
    <g id="Pad控制端" stroke="none" stroke-width="1" fill="none" fill-rule="evenodd">
        <g id="02媒体榜单" transform="translate(-15.000000, -289.000000)">
            <g id="左侧导航" transform="translate(0.000000, 72.000000)">
                <g id="ic_navigation_6_cbfx_selected" transform="translate(15.000000, 217.000000)">
                    <rect id="bg" x="0" y="0" width="16" height="16" rx="1"></rect>
                    <path d="M8.5,13.6096617 C8.53597271,13.6080546 8.5726762,13.6103331 8.60961246,13.6168459 L11.5640357,14.1377905 C11.8359829,14.1857421 12.0175671,14.4450713 11.9696155,14.7170184 C11.9216639,14.9889656 11.6623347,15.1705498 11.3903875,15.1225982 L8.43596428,14.6016537 C8.41956726,14.5987624 8.40349875,14.5951027 8.38778926,14.5907182 L7.61221074,14.5907182 C7.59650125,14.5951027 7.58043274,14.5987624 7.56403572,14.6016537 L4.60961246,15.1225982 C4.33766531,15.1705498 4.07833611,14.9889656 4.03038449,14.7170184 C3.98243287,14.4450713 4.16401713,14.1857421 4.43596428,14.1377905 L7.39038754,13.6168459 C7.4273238,13.6103331 7.46402729,13.6080546 7.5,13.6096617 L7.5,11.8697221 L1,11.8697221 C0.44771525,11.8697221 6.76353751e-17,11.4220068 0,10.8697221 L0,1.86972207 C-6.76353751e-17,1.31743732 0.44771525,0.869722067 1,0.869722067 L15,0.869722067 C15.5522847,0.869722067 16,1.31743732 16,1.86972207 L16,10.8697221 C16,11.4220068 15.5522847,11.8697221 15,11.8697221 L8.5,11.8697221 L8.5,13.6096617 Z M9.93585336,8.50423592 L12.9022325,5.53791202 C13.1701317,5.26051494 13.1662387,4.81972221 12.8935906,4.54707404 C12.6209424,4.27442586 12.1801497,4.27053286 11.9027526,4.53843213 L9.43542316,7.00578916 L7.07831263,4.64867862 C6.80232365,4.37277247 6.35484933,4.37277247 6.07886035,4.64867862 L3.29906922,7.42844215 C3.03116995,7.70581162 3.03503534,8.14663195 3.30768352,8.41928013 C3.58033169,8.69192831 4.02112442,8.69582131 4.2985215,8.42792204 L6.57929054,6.147153 L8.93499297,8.50423592 C9.06765874,8.63703974 9.24775839,8.71120005 9.43542316,8.71059263 C9.6229775,8.71070307 9.80288388,8.63645993 9.93585336,8.50423592 Z" id="Combined-Shape" fill="#2E9DED"></path>
                </g>
            </g>
        </g>
    </g>
</svg>