<?xml version="1.0" encoding="UTF-8"?>
<svg width="16px" height="16px" viewBox="0 0 16 16" version="1.1" xmlns="http://www.w3.org/2000/svg" xmlns:xlink="http://www.w3.org/1999/xlink">
    <!-- Generator: Sketch 49.2 (51160) - http://www.bohemiancoding.com/sketch -->
    <title>ic_navigation_1_xwxs_selected</title>
    <desc>Created with Sketch.</desc>
    <defs></defs>
    <g id="Pad控制端" stroke="none" stroke-width="1" fill="none" fill-rule="evenodd">
        <g id="02媒体榜单" transform="translate(-15.000000, -84.000000)">
            <g id="左侧导航" transform="translate(0.000000, 72.000000)">
                <g id="ic_navigation_1_xwxs_selected" transform="translate(15.000000, 12.000000)">
                    <rect id="bg" x="0" y="0" width="16" height="16" rx="1"></rect>
                    <path d="M15,6 L15,13.4 C15,14.2836556 14.2836556,15 13.4,15 L13,15 L2,15 C1.44771525,15 1,14.5522847 1,14 L1,2 C1,1.44771525 1.44771525,1 2,1 L12,1 C12.5522847,1 13,1.44771525 13,2 L13,6 L13,13.1650414 C13,13.4411838 13.2238576,13.6650414 13.5,13.6650414 C13.7761424,13.6650414 14,13.4411838 14,13.1650414 L14,6 L14,5.5 C14,5.22385763 14.2238576,5 14.5,5 C14.7761424,5 15,5.22385763 15,5.5 L15,6 Z M9.5,7.5 L4.5,7.5 C4.22385763,7.5 4,7.72385763 4,8 C4,8.27614237 4.22385763,8.5 4.5,8.5 L9.5,8.5 C9.77614237,8.5 10,8.27614237 10,8 C10,7.72385763 9.77614237,7.5 9.5,7.5 Z M9.5,4.5 L4.5,4.5 C4.22385763,4.5 4,4.72385763 4,5 C4,5.27614237 4.22385763,5.5 4.5,5.5 L9.5,5.5 C9.77614237,5.5 10,5.27614237 10,5 C10,4.72385763 9.77614237,4.5 9.5,4.5 Z M9.5,10.5 L4.5,10.5 C4.22385763,10.5 4,10.7238576 4,11 C4,11.2761424 4.22385763,11.5 4.5,11.5 L9.5,11.5 C9.77614237,11.5 10,11.2761424 10,11 C10,10.7238576 9.77614237,10.5 9.5,10.5 Z" id="Combined-Shape" fill="#2E9DED"></path>
                </g>
            </g>
        </g>
    </g>
</svg>