<?xml version="1.0" encoding="UTF-8"?>
<svg width="16px" height="16px" viewBox="0 0 16 16" version="1.1" xmlns="http://www.w3.org/2000/svg" xmlns:xlink="http://www.w3.org/1999/xlink">
    <!-- Generator: Sketch 49.2 (51160) - http://www.bohemiancoding.com/sketch -->
    <title>ic_navigation_2_zydt_selected</title>
    <desc>Created with Sketch.</desc>
    <defs></defs>
    <g id="Pad控制端" stroke="none" stroke-width="1" fill="none" fill-rule="evenodd">
        <g id="02媒体榜单" transform="translate(-15.000000, -125.000000)">
            <g id="左侧导航" transform="translate(0.000000, 72.000000)">
                <g id="ic_navigation_2_zydt_selected" transform="translate(15.000000, 53.000000)">
                    <rect id="bg" x="0" y="0" width="16" height="16" rx="1"></rect>
                    <path d="M11.5472473,11.2018057 C11.8063338,11.4151043 12.1382089,11.5431899 12.5,11.5431899 C13.3284271,11.5431899 14,10.871617 14,10.0431899 C14,9.21476273 13.3284271,8.54318986 12.5,8.54318986 C11.6715729,8.54318986 11,9.21476273 11,10.0431899 C11,10.292533 11.0608386,10.5276665 11.1684813,10.7345558 L9.65930226,11.7912943 C9.48328868,11.6368325 9.25258005,11.5431899 9,11.5431899 C8.96313167,11.5431899 8.92672934,11.545185 8.89089509,11.5490733 L7.6155214,9.04601152 C7.85454647,8.78029811 8,8.42873023 8,8.04318986 C8,7.21476273 7.32842712,6.54318986 6.5,6.54318986 C5.67157288,6.54318986 5,7.21476273 5,8.04318986 C5,8.29253297 5.06083861,8.52766647 5.16848126,8.73455578 L3.65930226,9.7912943 C3.48328868,9.63683255 3.25258005,9.54318986 3,9.54318986 C2.44771525,9.54318986 2,9.99090511 2,10.5431899 C2,11.0954746 2.44771525,11.5431899 3,11.5431899 C3.55228475,11.5431899 4,11.0954746 4,10.5431899 C4,10.4611646 3.99012423,10.3814459 3.97149685,10.3051581 L5.54724731,9.20180572 C5.80633376,9.41510425 6.13820888,9.54318986 6.5,9.54318986 C6.72341767,9.54318986 6.93542699,9.49434492 7.12593172,9.40675129 L8.34084931,11.7911613 C8.13190856,11.9744444 8,12.2434127 8,12.5431899 C8,13.0954746 8.44771525,13.5431899 9,13.5431899 C9.55228475,13.5431899 10,13.0954746 10,12.5431899 C10,12.4611646 9.99012423,12.3814459 9.97149685,12.3051581 L11.5472473,11.2018057 Z M0.5,5 L15.5,5 L15.5,14 C15.5,14.5522847 15.0522847,15 14.5,15 L1.5,15 C0.94771525,15 0.5,14.5522847 0.5,14 L0.5,5 Z M0.5,4 L0.5,2 C0.5,1.44771525 0.94771525,1 1.5,1 L6.67157288,1 C7.20200585,1 7.71071368,1.21071368 8.08578644,1.58578644 L8.5,2 L14.5,2 C15.0522847,2 15.5,2.44771525 15.5,3 L15.5,4 L0.5,4 Z" id="Combined-Shape" fill="#2E9DED"></path>
                </g>
            </g>
        </g>
    </g>
</svg>